<?xml version="1.0" encoding="UTF-8" standalone="no"?>
<!-- Created with Inkscape (http://www.inkscape.org/) -->

<svg
   xmlns:dc="http://purl.org/dc/elements/1.1/"
   xmlns:cc="http://creativecommons.org/ns#"
   xmlns:rdf="http://www.w3.org/1999/02/22-rdf-syntax-ns#"
   xmlns:svg="http://www.w3.org/2000/svg"
   xmlns="http://www.w3.org/2000/svg"
   xmlns:sodipodi="http://sodipodi.sourceforge.net/DTD/sodipodi-0.dtd"
   xmlns:inkscape="http://www.inkscape.org/namespaces/inkscape"
   height="214.29166"
   width="260.23688"
   viewBox="0 0 260.23686 214.29165"
   id="svg5369"
   version="1.1"
   inkscape:version="0.91 r13725"
   sodipodi:docname="pomodoro-technique.svg">
  <defs
     id="defs5375">
    <clipPath
       clipPathUnits="userSpaceOnUse"
       id="clipPath1010">
      <path
         d="m 30.592,2135.865 208.191,0 0,174.121 -208.191,0 0,-174.121 z"
         id="path1012"
         inkscape:connector-curvature="0" />
    </clipPath>
  </defs>
  <sodipodi:namedview
     pagecolor="#ffffff"
     bordercolor="#666666"
     borderopacity="1"
     objecttolerance="10"
     gridtolerance="10"
     guidetolerance="10"
     inkscape:pageopacity="0"
     inkscape:pageshadow="2"
     inkscape:window-width="1881"
     inkscape:window-height="1056"
     id="namedview5373"
     showgrid="false"
     fit-margin-top="0"
     fit-margin-left="0"
     fit-margin-right="0"
     fit-margin-bottom="0"
     units="px"
     inkscape:zoom="0.22425739"
     inkscape:cx="130.11842"
     inkscape:cy="107.14584"
     inkscape:window-x="39"
     inkscape:window-y="24"
     inkscape:window-maximized="1"
     inkscape:current-layer="svg5369" />
  <metadata
     id="metadata5371">
    <rdf:RDF>
      <cc:Work
         rdf:about="">
        <dc:format>image/svg+xml</dc:format>
        <dc:type
           rdf:resource="http://purl.org/dc/dcmitype/StillImage" />
        <dc:title></dc:title>
      </cc:Work>
    </rdf:RDF>
  </metadata>
  <g
     id="g1006"
     transform="matrix(1.25,0,0,-1.25,-38.241015,2884.1234)">
    <g
       id="g1008"
       clip-path="url(#clipPath1010)">
      <g
         id="g1014"
         transform="translate(52.3848,2200.7188)">
        <path
           d="m 0,0 c -0.741,1.381 -1.109,2.477 -1.109,3.278 0,0.835 0.321,1.253 0.964,1.253 0.673,0 1.188,-0.512 1.543,-1.543 l 0.098,-0.29 c 3.342,6.287 7.02,11.088 11.038,14.411 -1.958,1.612 -4.515,2.417 -7.665,2.417 -3.89,0 -7.2,-1.32 -9.934,-3.962 -2.73,-2.64 -4.096,-5.876 -4.096,-9.71 0,-2.769 0.626,-4.798 1.879,-6.086 0.9,-0.676 1.799,-1.336 2.702,-1.981 0.224,-0.258 0.337,-0.581 0.337,-0.968 0,-1.029 -0.482,-1.547 -1.445,-1.547 -0.453,0 -0.918,0.178 -1.398,0.533 -3.023,2.12 -4.534,5.239 -4.534,9.353 0,4.5 1.655,8.373 4.962,11.621 3.506,3.44 8.007,5.158 13.502,5.158 3.439,0 6.415,-0.821 8.922,-2.458 1.284,0.804 2.683,1.623 4.193,2.458 0.516,0.289 0.981,0.436 1.399,0.436 0.644,0 0.965,-0.275 0.965,-0.822 0,-0.61 -0.434,-1.125 -1.303,-1.541 -1.222,-0.578 -2.312,-1.223 -3.278,-1.931 1.865,-1.606 3.311,-3.566 4.341,-5.881 0.932,-2.123 1.396,-4.195 1.396,-6.22 0,-3.183 -1.18,-5.955 -3.541,-8.316 -2.364,-2.363 -5.088,-3.546 -8.173,-3.546 -1.963,0 -3.859,0.356 -5.69,1.062 -1.737,-4.659 -4.31,-8.213 -7.715,-10.657 -2.893,-2.086 -5.964,-3.132 -9.211,-3.132 -3.115,0 -5.72,0.838 -7.81,2.505 -2.089,1.669 -3.131,3.828 -3.131,6.462 0,2.378 0.719,4.228 2.168,5.546 1.159,0.996 2.442,1.495 3.858,1.495 1.06,0 1.951,-0.364 2.676,-1.086 0.722,-0.721 1.087,-1.536 1.087,-2.434 0,-1.03 -0.509,-1.881 -1.52,-2.555 -1.015,-0.676 -1.57,-1.061 -1.666,-1.158 -0.673,-0.644 -1.012,-1.398 -1.012,-2.267 0,-1.477 1.012,-2.215 3.037,-2.215 C -9.724,-14.675 -5.335,-9.9 0,0 m 7.231,-1.543 c 0.195,0 0.508,-0.042 0.943,-0.121 0.431,-0.082 0.76,-0.12 0.986,-0.12 2.058,0 3.81,1.096 5.257,3.288 1.381,2.096 2.071,4.528 2.071,7.302 0,2.257 -0.594,4.27 -1.783,6.045 C 12.294,11.636 9.802,6.171 7.231,-1.543"
           style="fill:#e4262c;fill-opacity:1;fill-rule:nonzero;stroke:none"
           id="path1016"
           inkscape:connector-curvature="0" />
      </g>
      <g
         id="g1018"
         transform="translate(94.2827,2195.4639)">
        <path
           d="m 0,0 c 0.513,-0.194 0.771,-0.45 0.771,-0.773 0,-0.354 -0.258,-0.82 -0.771,-1.397 -1.638,-2.184 -3.537,-3.359 -5.69,-3.52 -0.706,-0.065 -1.301,0.032 -1.783,0.291 -2.828,-3.731 -5.98,-5.594 -9.45,-5.594 -1.639,0 -2.943,0.528 -3.906,1.59 -0.963,1.06 -1.447,2.491 -1.447,4.292 0,0.77 0.097,1.574 0.29,2.409 -0.13,-0.127 -0.29,-0.193 -0.482,-0.193 -0.645,0 -0.965,0.32 -0.965,0.962 0,0.322 0.131,0.623 0.385,0.912 1.576,1.986 3.279,3.94 5.112,5.864 2.828,3.044 5.334,5.062 7.521,6.054 1.222,0.579 2.411,0.866 3.568,0.866 2.187,0 3.646,-1.106 4.388,-3.315 0.161,-0.482 0.24,-1.041 0.24,-1.682 0,-2.146 -0.804,-4.806 -2.408,-7.98 0.384,-0.221 0.578,-0.672 0.578,-1.342 1.093,0.255 1.958,0.947 2.602,2.073 C -0.964,0 -0.482,0.159 0,0 m -13.644,-6.123 c 0.223,-0.098 0.447,-0.148 0.674,-0.148 1.027,0 1.943,0.918 2.749,2.75 -0.418,0.739 -0.629,1.495 -0.629,2.266 0,0.448 0.081,0.869 0.242,1.255 0.417,1.062 1.463,1.446 3.135,1.157 1.255,2.408 1.878,4.209 1.878,5.399 0,0.899 -0.433,1.351 -1.3,1.351 -1.286,0 -3.021,-2.01 -5.208,-6.027 -1.671,-3.022 -2.508,-5.129 -2.508,-6.317 0,-0.835 0.321,-1.399 0.967,-1.686"
           style="fill:#e4262c;fill-opacity:1;fill-rule:nonzero;stroke:none"
           id="path1020"
           inkscape:connector-curvature="0" />
      </g>
      <g
         id="g1022"
         transform="translate(117.5225,2199.3682)">
        <path
           d="m 0,0 c 1.574,1.415 3.68,3.15 6.316,5.207 0.74,0.45 1.477,0.899 2.218,1.35 0.737,0.448 1.379,0.676 1.929,0.676 0.866,0 1.702,-0.548 2.508,-1.639 0.128,-0.193 0.193,-0.433 0.193,-0.723 0,-0.77 -0.758,-2.604 -2.267,-5.499 -2.121,-4.05 -3.184,-6.459 -3.184,-7.231 0,-0.288 0.115,-0.435 0.339,-0.435 0.675,0 1.959,0.773 3.858,2.315 0.062,0.065 0.415,0.466 1.061,1.207 0.48,0.546 0.865,0.818 1.156,0.818 0.193,0 0.394,-0.119 0.602,-0.36 0.209,-0.242 0.315,-0.458 0.315,-0.652 0,-0.321 -0.483,-1.013 -1.449,-2.074 -0.768,-0.867 -2.137,-2.137 -4.098,-3.809 -2.154,-1.864 -3.63,-2.964 -4.436,-3.301 -0.802,-0.338 -1.639,-0.508 -2.506,-0.508 -1.865,0 -2.909,0.725 -3.135,2.171 -0.163,1.058 0.45,3.038 1.833,5.931 0.867,1.668 1.737,3.343 2.603,5.013 0.13,0.29 0.192,0.515 0.192,0.676 0,0.192 -0.095,0.288 -0.288,0.288 -0.481,0 -1.095,-0.369 -1.832,-1.107 -0.61,-0.614 -1.799,-1.947 -3.569,-4.004 -2.026,-2.346 -3.421,-4.065 -4.194,-5.159 -0.771,-1.092 -1.737,-2.049 -2.893,-2.867 -1.156,-0.819 -2.169,-1.23 -3.036,-1.23 -1.158,0 -1.738,0.594 -1.738,1.782 0,0.546 0.256,1.238 0.773,2.074 0.772,1.286 1.188,1.995 1.254,2.122 1.285,2.25 2.667,4.726 4.144,7.425 0.1,0.256 0.146,0.466 0.146,0.626 0,0.225 -0.096,0.338 -0.288,0.338 -0.452,0 -1.046,-0.369 -1.788,-1.107 -0.608,-0.614 -1.797,-1.947 -3.565,-4.004 -2.025,-2.346 -3.423,-4.065 -4.195,-5.159 -0.771,-1.092 -1.736,-2.049 -2.891,-2.867 -1.159,-0.819 -2.172,-1.23 -3.038,-1.23 -1.159,0 -1.739,0.594 -1.739,1.782 0,0.546 0.257,1.238 0.774,2.074 0.806,1.319 1.221,2.025 1.252,2.122 0.579,1.188 2.042,4.065 4.39,8.629 -1.608,-1.83 -3.492,-3.919 -5.642,-6.267 -0.258,-0.224 -0.529,-0.336 -0.819,-0.336 -0.515,0 -0.774,0.24 -0.774,0.723 0,0.224 0.097,0.464 0.291,0.722 1.702,2.028 3.81,4.644 6.316,7.861 2.346,3.662 3.954,5.401 4.821,5.206 0.578,-0.129 1.164,-0.499 1.76,-1.109 0.595,-0.611 0.958,-1.206 1.085,-1.786 0.291,-1.251 0.291,-2.377 0,-3.373 -0.161,-0.578 -0.756,-1.624 -1.784,-3.134 1.124,1.091 2.171,2.073 3.135,2.941 2.283,2.09 3.95,3.454 5.014,4.098 l 2.217,1.35 c 0.738,0.448 1.382,0.676 1.929,0.676 0.87,0 1.705,-0.548 2.507,-1.639 C 1.911,5.401 1.977,5.161 1.977,4.871 1.977,4.065 1.318,2.443 0,0"
           style="fill:#e4262c;fill-opacity:1;fill-rule:nonzero;stroke:none"
           id="path1024"
           inkscape:connector-curvature="0" />
      </g>
      <g
         id="g1026"
         transform="translate(153.105,2195.4639)">
        <path
           d="m 0,0 c 0.513,-0.194 0.769,-0.45 0.769,-0.773 0,-0.354 -0.256,-0.82 -0.769,-1.397 -1.642,-2.184 -3.536,-3.359 -5.688,-3.52 -0.711,-0.065 -1.303,0.034 -1.786,0.291 -2.831,-3.731 -5.98,-5.594 -9.448,-5.594 -1.641,0 -2.944,0.528 -3.908,1.59 -0.962,1.06 -1.446,2.491 -1.446,4.292 0,0.77 0.096,1.574 0.289,2.409 -0.129,-0.127 -0.289,-0.193 -0.482,-0.193 -0.644,0 -0.963,0.32 -0.963,0.962 0,0.322 0.127,0.623 0.386,0.912 1.572,1.986 3.277,3.94 5.109,5.864 2.829,3.044 5.335,5.062 7.521,6.054 1.222,0.579 2.414,0.866 3.568,0.866 2.187,0 3.648,-1.106 4.39,-3.315 0.158,-0.482 0.239,-1.041 0.239,-1.682 0,-2.146 -0.802,-4.806 -2.41,-7.98 0.386,-0.221 0.578,-0.672 0.578,-1.342 1.093,0.255 1.962,0.947 2.605,2.073 C -0.963,0 -0.482,0.159 0,0 m -13.646,-6.123 c 0.225,-0.098 0.451,-0.148 0.675,-0.148 1.03,0 1.945,0.918 2.748,2.75 -0.417,0.739 -0.626,1.495 -0.626,2.266 0,0.448 0.078,0.869 0.243,1.255 0.414,1.062 1.459,1.446 3.132,1.157 1.254,2.408 1.88,4.209 1.88,5.399 0,0.899 -0.434,1.351 -1.303,1.351 -1.284,0 -3.02,-2.01 -5.204,-6.027 -1.672,-3.022 -2.509,-5.129 -2.509,-6.317 0,-0.835 0.322,-1.399 0.964,-1.686"
           style="fill:#e4262c;fill-opacity:1;fill-rule:nonzero;stroke:none"
           id="path1028"
           inkscape:connector-curvature="0" />
      </g>
      <g
         id="g1030"
         transform="translate(162.5073,2188.6162)">
        <path
           d="m 0,0 c -2.8,-2.923 -5.127,-4.388 -6.993,-4.388 -0.674,0 -1.301,0.162 -1.882,0.481 -1.35,0.739 -2.023,2.026 -2.023,3.857 0,0.453 0.048,0.918 0.145,1.4 0.127,0.837 0.241,1.364 0.337,1.59 0.191,0.516 0.529,0.982 1.014,1.399 -0.806,-0.803 -1.384,-1.206 -1.739,-1.206 -0.287,0 -0.562,0.146 -0.817,0.435 -0.258,0.29 -0.387,0.578 -0.387,0.869 0,0.416 0.324,0.818 0.965,1.205 0.642,0.384 1.769,1.607 3.376,3.664 1.863,2.379 3.614,4.259 5.254,5.641 2.377,2.025 4.612,3.038 6.702,3.038 1.319,0 2.494,-0.403 3.519,-1.205 2.027,3.727 4.276,7.777 6.75,12.149 0.225,0.384 0.467,0.787 0.727,1.205 0.221,0.288 0.591,0.387 1.105,0.288 0.9,-0.126 1.673,-0.691 2.317,-1.687 0.739,-1.125 1.107,-2.039 1.107,-2.746 0,-0.804 -1.56,-4.402 -4.676,-10.801 C 13.453,12.265 11.812,8.903 9.882,5.11 9.595,4.693 9.449,4.308 9.449,3.953 c 0,-0.576 0.336,-0.867 1.011,-0.867 0.388,0 0.707,0.128 0.967,0.386 0.545,0.61 1.282,1.317 2.214,2.121 0.451,0.257 0.726,0.386 0.822,0.386 0.225,0 0.514,-0.129 0.869,-0.386 0.161,-0.13 0.24,-0.288 0.24,-0.483 0,-0.547 -1.092,-2.007 -3.28,-4.385 C 9.368,-2.491 6.411,-4.098 3.423,-4.098 1.686,-4.098 0.545,-2.732 0,0 m -1.305,2.556 c 1.03,0 2.556,1.526 4.581,4.58 1.578,2.379 2.364,4.162 2.364,5.349 0,0.742 -0.321,1.112 -0.964,1.112 -0.901,0 -2.525,-1.659 -4.869,-4.967 -1.417,-1.994 -2.122,-3.584 -2.122,-4.772 0,-0.869 0.336,-1.302 1.01,-1.302"
           style="fill:#e4262c;fill-opacity:1;fill-rule:nonzero;stroke:none"
           id="path1032"
           inkscape:connector-curvature="0" />
      </g>
      <g
         id="g1034"
         transform="translate(198.8638,2195.4639)">
        <path
           d="m 0,0 c 0.513,-0.194 0.771,-0.45 0.771,-0.773 0,-0.354 -0.258,-0.82 -0.771,-1.397 -1.643,-2.184 -3.538,-3.359 -5.691,-3.52 -0.709,-0.065 -1.302,0.034 -1.785,0.291 -2.831,-3.731 -5.979,-5.594 -9.449,-5.594 -1.64,0 -2.945,0.528 -3.904,1.59 -0.967,1.06 -1.451,2.491 -1.451,4.292 0,0.77 0.098,1.574 0.29,2.409 -0.127,-0.127 -0.29,-0.193 -0.483,-0.193 -0.641,0 -0.962,0.32 -0.962,0.962 0,0.322 0.126,0.623 0.385,0.912 1.574,1.986 3.279,3.94 5.111,5.864 2.827,3.044 5.336,5.062 7.522,6.054 1.22,0.579 2.41,0.866 3.568,0.866 2.187,0 3.647,-1.106 4.39,-3.315 0.158,-0.482 0.24,-1.041 0.24,-1.682 0,-2.146 -0.805,-4.806 -2.415,-7.98 0.388,-0.221 0.582,-0.672 0.582,-1.342 1.091,0.255 1.959,0.947 2.603,2.073 C -0.966,0 -0.485,0.159 0,0 m -13.649,-6.123 c 0.226,-0.098 0.449,-0.148 0.675,-0.148 1.029,0 1.945,0.918 2.748,2.75 -0.417,0.739 -0.627,1.495 -0.627,2.266 0,0.448 0.082,0.869 0.242,1.255 0.418,1.062 1.463,1.446 3.135,1.157 1.254,2.408 1.879,4.209 1.879,5.399 0,0.899 -0.436,1.351 -1.301,1.351 -1.285,0 -3.021,-2.01 -5.205,-6.027 -1.673,-3.022 -2.509,-5.129 -2.509,-6.317 0,-0.835 0.32,-1.399 0.963,-1.686"
           style="fill:#e4262c;fill-opacity:1;fill-rule:nonzero;stroke:none"
           id="path1036"
           inkscape:connector-curvature="0" />
      </g>
      <g
         id="g1038"
         transform="translate(203.3442,2202.7432)">
        <path
           d="m 0,0 c -0.739,0.611 -1.108,1.365 -1.108,2.266 0,0.739 0.238,1.592 0.725,2.553 0.8,1.544 1.976,2.317 3.516,2.317 0.579,0 1.071,-0.16 1.473,-0.481 0.401,-0.323 0.6,-0.82 0.6,-1.496 0,-0.674 -0.192,-1.413 -0.577,-2.217 0.837,-0.485 2.09,-0.45 3.759,0.095 1.414,0.483 2.414,0.725 2.991,0.725 0.868,0 1.381,-0.372 1.543,-1.109 0.064,-0.259 0.097,-0.516 0.097,-0.773 0,-0.547 -0.16,-1.15 -0.48,-1.807 -0.323,-0.66 -0.647,-1.295 -0.966,-1.903 -1.061,-2.252 -2.252,-4.856 -3.569,-7.814 -0.385,-1.059 -0.385,-1.703 0,-1.927 0.547,0 1.031,0.273 1.449,0.821 0.769,0.706 1.732,1.639 2.889,2.794 0.322,0.452 0.758,0.677 1.302,0.677 0.323,0 0.547,-0.097 0.676,-0.29 0.257,-0.257 0.385,-0.482 0.385,-0.676 0,-0.227 -0.288,-0.692 -0.868,-1.399 -3.084,-3.729 -6.253,-6.379 -9.496,-7.951 -0.902,-0.454 -1.769,-0.677 -2.607,-0.677 -1.217,0 -2.189,0.431 -2.915,1.3 -0.722,0.868 -1.034,1.767 -0.939,2.701 0.224,2.025 1.862,4.949 4.916,8.776 1.188,1.478 1.785,2.635 1.785,3.469 0,0.804 -0.691,1.207 -2.073,1.207 -3.471,-4.533 -5.946,-7.522 -7.427,-8.969 -0.544,-0.547 -1.109,-0.627 -1.687,-0.24 -0.256,0.128 -0.384,0.336 -0.384,0.626 0,0.291 0.128,0.547 0.384,0.771 1.384,1.545 2.463,2.798 3.231,3.762 C -2.056,-3.2 -0.933,-1.575 0,0"
           style="fill:#e4262c;fill-opacity:1;fill-rule:nonzero;stroke:none"
           id="path1040"
           inkscape:connector-curvature="0" />
      </g>
      <g
         id="g1042"
         transform="translate(238.0093,2195.4639)">
        <path
           d="m 0,0 c 0.516,-0.194 0.773,-0.45 0.773,-0.773 0,-0.354 -0.257,-0.82 -0.773,-1.397 -1.637,-2.184 -3.534,-3.359 -5.687,-3.52 -0.708,-0.065 -1.302,0.034 -1.783,0.291 -2.831,-3.731 -5.98,-5.594 -9.453,-5.594 -1.638,0 -2.941,0.528 -3.905,1.59 -0.963,1.06 -1.447,2.491 -1.447,4.292 0,0.77 0.098,1.574 0.292,2.409 -0.129,-0.127 -0.292,-0.193 -0.482,-0.193 -0.646,0 -0.965,0.32 -0.965,0.962 0,0.322 0.131,0.623 0.386,0.912 1.575,1.986 3.279,3.94 5.108,5.864 2.83,3.044 5.335,5.062 7.522,6.054 1.224,0.579 2.412,0.866 3.569,0.866 2.183,0 3.65,-1.106 4.388,-3.315 0.161,-0.482 0.242,-1.041 0.242,-1.682 0,-2.146 -0.807,-4.806 -2.411,-7.98 0.383,-0.221 0.579,-0.672 0.579,-1.342 1.093,0.255 1.958,0.947 2.605,2.073 C -0.959,0 -0.481,0.159 0,0 m -13.642,-6.123 c 0.225,-0.098 0.449,-0.148 0.675,-0.148 1.028,0 1.944,0.918 2.747,2.75 -0.415,0.739 -0.628,1.495 -0.628,2.266 0,0.448 0.08,0.869 0.243,1.255 0.416,1.062 1.462,1.446 3.135,1.157 1.253,2.408 1.879,4.209 1.879,5.399 0,0.899 -0.433,1.351 -1.301,1.351 -1.287,0 -3.023,-2.01 -5.209,-6.027 -1.672,-3.022 -2.506,-5.129 -2.506,-6.317 0,-0.835 0.323,-1.399 0.965,-1.686"
           style="fill:#e4262c;fill-opacity:1;fill-rule:nonzero;stroke:none"
           id="path1044"
           inkscape:connector-curvature="0" />
      </g>
      <g
         id="g1046"
         transform="translate(53.7974,2241.7705)">
        <path
           d="m 0,0 c -0.551,0 -0.827,0.215 -0.827,0.646 0,0.137 0.044,0.293 0.129,0.465 0.189,0.326 0.855,0.49 1.99,0.49 0.207,0.244 0.362,0.43 0.465,0.568 0.121,0.209 0.758,1.268 1.913,3.18 0.19,0.31 0.396,0.465 0.619,0.465 0.207,0 0.448,-0.155 0.724,-0.465 C 5.235,5.09 5.453,4.832 5.66,4.575 5.901,4.228 6.023,3.866 6.023,3.489 6.023,3.073 5.901,2.609 5.66,2.095 5.66,2.11 5.564,1.929 5.374,1.55 6.823,1.55 7.547,1.405 7.547,1.111 7.547,1.023 7.502,0.913 7.416,0.774 L 6.952,0.103 C 6.83,0 6.58,-0.052 6.201,-0.052 l -0.735,0 -0.916,0 C 3.894,-1.179 3.481,-1.867 3.309,-2.119 c 0,0.035 0.102,0.223 0.31,0.567 -1.431,-2.72 -2.182,-4.185 -2.248,-4.392 -0.225,-0.586 -0.2,-0.957 0.076,-1.11 0.086,-0.053 0.255,-0.04 0.516,0.037 0.258,0.079 0.457,0.184 0.594,0.325 0.656,0.514 1.415,1.144 2.277,1.885 0.206,0.224 0.446,0.335 0.722,0.335 0.362,0 0.541,-0.163 0.541,-0.49 0,-0.154 -0.153,-0.414 -0.463,-0.775 -0.689,-0.826 -1.75,-1.758 -3.181,-2.791 -1.669,-1.19 -2.918,-1.783 -3.745,-1.783 -0.67,0 -1.214,0.248 -1.628,0.748 -0.379,0.43 -0.535,0.887 -0.466,1.371 0.156,1.188 0.948,3.005 2.377,5.452 -0.67,-0.861 -1.515,-1.877 -2.533,-3.049 -0.324,-0.327 -0.637,-0.377 -0.928,-0.155 -0.311,0.189 -0.311,0.455 0,0.801 C -3.264,-3.799 -1.774,-2.084 0,0"
           style="fill:#48ac42;fill-opacity:1;fill-rule:nonzero;stroke:none"
           id="path1048"
           inkscape:connector-curvature="0" />
      </g>
      <g
         id="g1050"
         transform="translate(58.5752,2236.8086)">
        <path
           d="m 0,0 c 0.054,0.086 0.942,1.059 2.664,2.92 0.397,0.431 1.041,1.314 1.939,2.648 0.894,1.336 1.621,2.503 2.171,3.503 0.396,0.808 0.791,1.611 1.189,2.403 0.652,1.241 1.169,1.861 1.549,1.861 0.62,0 1.198,-0.889 1.734,-2.663 0.015,-0.051 0.024,-0.121 0.024,-0.207 0,-0.379 -0.345,-1.213 -1.034,-2.506 C 9.237,6.063 8.548,4.686 8.169,3.824 c 2.688,1.723 4.574,2.584 5.659,2.584 0.364,0 0.663,-0.129 0.904,-0.387 0.242,-0.257 0.362,-0.579 0.362,-0.956 0,-0.258 -0.051,-0.553 -0.153,-0.879 C 14.818,3.808 14,2.248 12.486,-0.492 c -0.122,-0.224 -0.182,-0.422 -0.182,-0.594 0,-0.276 0.182,-0.412 0.542,-0.412 0.309,0 0.561,0.076 0.751,0.23 0.549,0.451 1.043,0.94 1.473,1.475 0.291,0.361 0.541,0.541 0.746,0.541 0.347,0 0.519,-0.162 0.519,-0.49 0,-0.12 -0.068,-0.276 -0.206,-0.465 -0.138,-0.19 -0.216,-0.311 -0.234,-0.36 -0.036,-0.173 -0.912,-1.029 -2.637,-2.56 -0.617,-0.551 -1.316,-1.059 -2.091,-1.525 -0.844,-0.516 -1.464,-0.774 -1.862,-0.774 -0.084,0 -0.163,0.015 -0.233,0.051 -0.999,0.551 -1.496,1.137 -1.496,1.756 0,0.431 0.196,1.102 0.593,2.016 0.501,1.121 0.749,1.939 0.749,2.455 0,0.242 -0.077,0.363 -0.233,0.363 C 8.342,1.215 7.608,0.48 6.489,-0.982 5.163,-2.723 4.095,-3.902 3.284,-4.523 3.232,-4.558 2.767,-4.791 1.89,-5.219 1.752,-5.291 1.621,-5.323 1.5,-5.323 c -0.395,0 -0.704,0.307 -0.928,0.929 -0.087,0.224 0.44,1.388 1.576,3.489 C 3.75,2.042 4.646,3.713 4.834,4.108 4.509,3.558 3.765,2.574 2.612,1.163 1.629,-0.025 1.019,-0.74 0.778,-0.982 0.675,-1.086 0.572,-1.136 0.468,-1.136 0.194,-1.136 0,-1.018 -0.101,-0.775 -0.204,-0.518 -0.17,-0.258 0,0"
           style="fill:#48ac42;fill-opacity:1;fill-rule:nonzero;stroke:none"
           id="path1052"
           inkscape:connector-curvature="0" />
      </g>
      <g
         id="g1054"
         transform="translate(78.062,2234.9746)">
        <path
           d="m 0,0 c -0.083,-0.948 0.261,-1.433 1.033,-1.449 0.483,-0.017 1.097,0.188 1.836,0.621 0.672,0.412 1.26,0.88 1.758,1.394 C 5.282,1.273 5.724,1.7 5.958,1.848 6.189,1.993 6.334,2.066 6.384,2.066 6.521,2.066 6.696,1.997 6.9,1.86 6.986,1.791 7.028,1.704 7.028,1.602 c 0,-0.379 -0.602,-1.13 -1.807,-2.249 -2.222,-2.05 -4.256,-3.074 -6.1,-3.074 -0.569,0 -1.066,0.12 -1.497,0.362 -0.588,0.326 -1.045,0.834 -1.37,1.523 -0.276,0.569 -0.38,1.051 -0.31,1.446 0.068,0.431 0.12,0.715 0.155,0.853 0.103,0.275 0.293,0.525 0.568,0.75 -0.45,-0.447 -0.767,-0.67 -0.955,-0.67 -0.156,0 -0.298,0.076 -0.425,0.231 -0.132,0.156 -0.197,0.31 -0.197,0.464 0,0.209 0.172,0.432 0.517,0.673 0.19,0.138 0.764,0.775 1.721,1.914 0.956,1.135 1.932,2.073 2.933,2.816 1.411,1.066 2.668,1.601 3.771,1.601 0.724,0 1.3,-0.215 1.73,-0.646 C 6.245,7.115 6.486,6.598 6.486,6.047 6.486,5.219 5.972,4.254 4.935,3.152 3.509,1.635 1.861,0.584 0,0 m 1.757,2.608 c 0.276,0 0.86,0.474 1.758,1.423 0.534,0.568 0.802,1.163 0.802,1.785 0,0.274 -0.104,0.412 -0.313,0.412 C 3.68,6.228 3.093,5.667 2.248,4.547 1.664,3.842 1.369,3.307 1.369,2.944 1.369,2.722 1.501,2.608 1.757,2.608"
           style="fill:#48ac42;fill-opacity:1;fill-rule:nonzero;stroke:none"
           id="path1056"
           inkscape:connector-curvature="0" />
      </g>
      <g
         id="g1058"
         transform="translate(37.2686,2160.083)">
        <path
           d="M 0,0 C -0.894,0 -1.647,-0.201 -2.255,-0.604 -2.498,-0.782 -2.688,-0.97 -2.831,-1.167 -2.975,-1.363 -3.115,-1.61 -3.254,-1.904 -3.395,-2.198 -3.517,-2.445 -3.625,-2.643 l -0.441,-0.843 -0.658,0 0.684,4.452 16.054,0 0.754,-4.319 -0.699,0 -0.51,0.965 c -0.278,0.52 -0.502,0.909 -0.672,1.167 -0.17,0.261 -0.408,0.493 -0.711,0.698 -0.304,0.224 -0.612,0.366 -0.92,0.431 C 8.948,-0.03 8.53,0 8,0 l -2.657,0 0,-17.089 c 0,-0.439 0.174,-0.779 0.523,-1.018 0.394,-0.287 0.877,-0.445 1.45,-0.471 l 0.578,-0.026 0,-0.712 -7.773,0 0,0.712 0.982,0.106 c 0.329,0.053 0.577,0.11 0.743,0.167 0.166,0.058 0.327,0.168 0.491,0.329 0.187,0.215 0.28,0.527 0.28,0.94 L 2.617,0 0,0 Z"
           style="fill:#e4262c;fill-opacity:1;fill-rule:nonzero;stroke:none"
           id="path1060"
           inkscape:connector-curvature="0" />
      </g>
      <g
         id="g1062"
         transform="translate(55.6958,2140.7666)">
        <path
           d="m 0,0 0,0.713 0.967,0.174 c 0.303,0.025 0.547,0.069 0.724,0.132 0.178,0.062 0.34,0.179 0.483,0.349 0.143,0.187 0.234,0.373 0.268,0.549 0.037,0.182 0.055,0.431 0.055,0.752 l 0,15.441 c 0,0.286 -0.082,0.551 -0.241,0.791 -0.126,0.19 -0.301,0.319 -0.525,0.391 -0.224,0.071 -0.519,0.125 -0.885,0.16 L 0,19.479 l 0,0.803 13.195,0 0,-4.678 -0.737,0 -0.229,1.125 c -0.143,0.546 -0.264,0.951 -0.361,1.208 -0.1,0.257 -0.288,0.509 -0.565,0.75 -0.483,0.439 -1.118,0.658 -1.905,0.658 l -4.096,0 0,-8.272 2.618,0 c 0.896,0 1.536,0.156 1.919,0.471 0.233,0.197 0.399,0.408 0.498,0.639 0.099,0.225 0.169,0.537 0.214,0.932 l 0.053,0.496 0.753,0 0,-6.147 -0.778,0 -0.028,0.553 C 10.471,8.65 10.243,9.155 9.867,9.532 9.428,9.933 8.743,10.135 7.812,10.135 l -2.51,0 0,-6.261 C 5.302,3.267 5.34,2.792 5.417,2.446 5.492,2.103 5.683,1.793 5.987,1.517 6.345,1.186 6.921,1.019 7.717,1.019 l 2.646,0 c 0.384,0 0.741,0.043 1.068,0.127 0.326,0.086 0.669,0.234 1.027,0.451 0.393,0.257 0.734,0.628 1.027,1.105 0.291,0.478 0.499,0.903 0.623,1.279 L 14.565,5.216 15.29,5.19 14.377,0 0,0 Z"
           style="fill:#e4262c;fill-opacity:1;fill-rule:nonzero;stroke:none"
           id="path1064"
           inkscape:connector-curvature="0" />
      </g>
      <g
         id="g1066"
         transform="translate(93.8286,2156.5791)">
        <path
           d="m 0,0 c -0.144,0.823 -0.454,1.509 -0.933,2.056 -0.48,0.544 -1.086,0.959 -1.826,1.241 -0.738,0.278 -1.593,0.444 -2.57,0.489 -1.862,0 -3.392,-0.42 -4.591,-1.262 -1.199,-0.841 -2.075,-1.953 -2.631,-3.337 -0.554,-1.379 -0.86,-2.901 -0.913,-4.555 l 0,-0.633 c 0,-1.609 0.26,-3.103 0.779,-4.483 0.518,-1.378 1.358,-2.493 2.518,-3.349 1.158,-0.855 2.641,-1.314 4.45,-1.377 0.705,0 1.337,0.047 1.892,0.143 0.555,0.093 1.08,0.255 1.578,0.485 0.496,0.224 0.989,0.558 1.483,0.998 0.357,0.331 0.645,0.65 0.866,0.959 0.218,0.31 0.422,0.695 0.61,1.159 l 0.335,0.795 0.765,0 -1.019,-4.23 c -0.894,-0.393 -2.009,-0.701 -3.344,-0.918 -1.331,-0.219 -2.609,-0.329 -3.825,-0.329 -2.22,0.081 -4.113,0.546 -5.68,1.402 -1.565,0.854 -2.749,2.024 -3.549,3.503 -0.801,1.48 -1.215,3.176 -1.242,5.082 0,1.977 0.475,3.797 1.43,5.457 0.954,1.66 2.254,2.98 3.906,3.961 1.651,0.979 3.462,1.488 5.43,1.523 0.725,0 1.498,-0.039 2.324,-0.116 0.821,-0.076 1.665,-0.225 2.529,-0.448 0.864,-0.223 1.586,-0.532 2.169,-0.928 l 0,-4.333 -0.753,0 L 0,0 Z"
           style="fill:#e4262c;fill-opacity:1;fill-rule:nonzero;stroke:none"
           id="path1068"
           inkscape:connector-curvature="0" />
      </g>
      <g
         id="g1070"
         transform="translate(116.7808,2152.4443)">
        <path
           d="M 0,0 0,6.392 C 0,6.749 -0.073,7.029 -0.215,7.236 -0.422,7.551 -0.816,7.725 -1.396,7.76 l -1.129,0.053 0,0.791 7.838,0 0,-0.791 L 4.457,7.786 C 4.089,7.751 3.801,7.698 3.59,7.626 3.38,7.555 3.21,7.423 3.085,7.236 2.918,7.022 2.832,6.758 2.832,6.444 l 0,-15.868 c 0,-0.418 0.094,-0.732 0.282,-0.937 0.106,-0.135 0.219,-0.232 0.334,-0.284 0.118,-0.052 0.258,-0.094 0.424,-0.12 0.165,-0.027 0.325,-0.05 0.475,-0.068 l 0.966,-0.132 0,-0.714 -7.81,0 0,0.714 0.603,0.106 c 0.178,0.016 0.371,0.038 0.57,0.059 0.202,0.024 0.38,0.059 0.531,0.109 0.153,0.049 0.282,0.124 0.389,0.222 0.268,0.233 0.404,0.571 0.404,1.02 l 0,8.269 -10.313,0 0,-8.269 c 0,-0.441 0.141,-0.78 0.417,-1.02 0.217,-0.169 0.427,-0.278 0.64,-0.323 0.211,-0.044 0.493,-0.085 0.853,-0.121 l 0.601,-0.052 0,-0.714 -7.823,0 0,0.714 0.965,0.132 c 0.09,0.018 0.205,0.037 0.349,0.053 0.144,0.019 0.269,0.047 0.375,0.083 0.107,0.034 0.198,0.072 0.269,0.113 0.072,0.04 0.153,0.115 0.242,0.223 0.188,0.214 0.281,0.525 0.281,0.937 l 0,15.868 c 0,0.296 -0.075,0.562 -0.227,0.792 -0.214,0.306 -0.681,0.489 -1.395,0.55 l -0.859,0.027 0,0.791 7.851,0 0,-0.791 L -8.901,7.76 C -9.464,7.732 -9.859,7.559 -10.082,7.236 -10.235,7.04 -10.313,6.758 -10.313,6.392 L -10.313,0 0,0 Z"
           style="fill:#e4262c;fill-opacity:1;fill-rule:nonzero;stroke:none"
           id="path1072"
           inkscape:connector-curvature="0" />
      </g>
      <g
         id="g1074"
         transform="translate(145.8535,2157.8154)">
        <path
           d="m 0,0 c 0,0.59 -0.112,1.055 -0.336,1.395 -0.448,0.701 -1.165,1.047 -2.148,1.047 l -0.739,0 0,0.791 7.09,0 0,-0.791 -0.406,0 C 3.067,2.442 2.725,2.378 2.427,2.247 2.134,2.118 1.882,1.919 1.68,1.649 1.481,1.383 1.358,1.124 1.308,0.878 1.259,0.634 1.233,0.322 1.233,-0.056 l 0,-16.993 -0.965,0 -14.135,16.848 0,-13.601 c 0,-0.525 0.111,-0.987 0.336,-1.384 0.223,-0.391 0.552,-0.681 0.985,-0.872 0.435,-0.185 0.866,-0.278 1.297,-0.278 l 0.576,0 0,-0.713 -7.06,0 0,0.713 0.401,0 c 0.764,0 1.37,0.293 1.827,0.884 0.188,0.26 0.305,0.506 0.356,0.738 0.05,0.234 0.073,0.565 0.073,0.994 l 0,14.217 c -0.321,0.563 -0.782,1.028 -1.375,1.396 -0.596,0.366 -1.273,0.549 -2.034,0.549 l 0,0.791 5.263,0 L 0,-12.514 0,0 Z"
           style="fill:#e4262c;fill-opacity:1;fill-rule:nonzero;stroke:none"
           id="path1076"
           inkscape:connector-curvature="0" />
      </g>
      <g
         id="g1078"
         transform="translate(162.2261,2160.2041)">
        <path
           d="m 0,0 c -0.573,-0.026 -0.965,-0.201 -1.181,-0.523 -0.144,-0.206 -0.215,-0.49 -0.215,-0.845 l 0,-15.841 c 0,-0.422 0.135,-0.761 0.4,-1.02 0.127,-0.1 0.262,-0.168 0.404,-0.208 0.143,-0.042 0.311,-0.07 0.499,-0.087 0.185,-0.019 0.384,-0.05 0.589,-0.095 l 0.579,-0.106 0,-0.713 -7.787,0 0,0.713 0.993,0.132 c 0.072,0.019 0.187,0.035 0.343,0.057 0.157,0.015 0.284,0.04 0.381,0.072 0.099,0.03 0.186,0.071 0.264,0.121 0.077,0.047 0.15,0.121 0.219,0.222 0.19,0.205 0.286,0.518 0.286,0.938 l 0,15.867 c 0,0.35 -0.079,0.612 -0.23,0.793 -0.215,0.305 -0.681,0.488 -1.396,0.549 l -0.86,0.028 0,0.793 7.787,0 0,-0.793 L 0,0 Z"
           style="fill:#e4262c;fill-opacity:1;fill-rule:nonzero;stroke:none"
           id="path1080"
           inkscape:connector-curvature="0" />
      </g>
      <g
         id="g1082"
         transform="translate(190.8149,2136.1484)">
        <path
           d="m 0,0 c -0.52,-0.187 -0.931,-0.283 -1.235,-0.283 -0.712,0.072 -1.448,0.323 -2.213,0.754 l -7.113,3.931 c -0.4,-0.08 -0.834,-0.12 -1.299,-0.12 -0.286,0 -0.638,0.024 -1.06,0.069 -1.215,0.133 -2.34,0.464 -3.367,0.993 -1.027,0.528 -1.925,1.224 -2.689,2.093 -0.766,0.868 -1.369,1.846 -1.813,2.932 -0.442,1.09 -0.715,2.258 -0.823,3.511 -0.019,0.172 -0.029,0.408 -0.029,0.713 0,1.842 0.485,3.58 1.451,5.21 0.967,1.626 2.258,2.936 3.878,3.925 1.618,0.988 3.342,1.483 5.177,1.483 0.368,0 0.647,-0.011 0.844,-0.026 1.757,-0.18 3.31,-0.656 4.663,-1.425 1.353,-0.769 2.434,-1.848 3.245,-3.235 0.808,-1.389 1.282,-3.06 1.418,-5.019 0.017,-0.163 0.026,-0.409 0.026,-0.742 0,-1.019 -0.166,-2.042 -0.492,-3.073 C -1.758,10.664 -2.243,9.695 -2.889,8.793 -3.534,7.889 -4.296,7.107 -5.18,6.451 -6.062,5.793 -7.061,5.283 -8.173,4.926 l 3.94,-1.879 C -3.851,2.859 -3.458,2.683 -3.06,2.519 -2.661,2.352 -2.25,2.2 -1.823,2.066 -1.397,1.933 -0.994,1.82 -0.607,1.73 -0.149,1.623 0.284,1.541 0.698,1.483 1.107,1.426 1.583,1.388 2.12,1.368 L 2.389,0.847 0,0 Z m -12.127,24.298 c -1.029,-0.064 -1.931,-0.36 -2.702,-0.894 -0.774,-0.531 -1.418,-1.244 -1.925,-2.133 -0.512,-0.891 -0.889,-1.897 -1.135,-3.02 -0.245,-1.124 -0.368,-2.287 -0.368,-3.487 0.045,-1.592 0.373,-3.111 0.98,-4.555 0.608,-1.445 1.481,-2.625 2.619,-3.538 1.142,-0.912 2.477,-1.368 4.005,-1.368 1.145,0.063 2.131,0.353 2.956,0.873 0.827,0.516 1.502,1.2 2.019,2.047 0.521,0.843 0.898,1.785 1.134,2.818 0.236,1.033 0.355,2.119 0.355,3.254 0,0.182 -0.002,0.325 -0.007,0.433 -0.004,0.105 -0.008,0.226 -0.02,0.36 -0.052,1.199 -0.245,2.349 -0.576,3.443 -0.33,1.097 -0.817,2.079 -1.455,2.948 -0.642,0.868 -1.45,1.555 -2.428,2.06 -0.979,0.506 -2.129,0.759 -3.452,0.759"
           style="fill:#e4262c;fill-opacity:1;fill-rule:nonzero;stroke:none"
           id="path1084"
           inkscape:connector-curvature="0" />
      </g>
      <g
         id="g1086"
         transform="translate(197.9136,2147.584)">
        <path
           d="m 0,0 0,11.305 c 0,0.34 -0.072,0.602 -0.217,0.792 -0.125,0.186 -0.302,0.317 -0.523,0.387 -0.225,0.073 -0.521,0.127 -0.885,0.162 l -0.874,0.028 0,0.793 7.773,0 0,-0.793 -1.035,-0.053 C 3.954,12.604 3.716,12.561 3.529,12.492 3.34,12.428 3.184,12.295 3.06,12.098 2.908,11.892 2.832,11.61 2.832,11.252 l 0,-11.214 c 0,-1.645 0.455,-3.015 1.369,-4.111 0.911,-1.097 2.262,-1.659 4.052,-1.687 0.923,0 1.763,0.175 2.526,0.52 0.76,0.344 1.399,0.807 1.911,1.395 0.516,0.585 0.912,1.263 1.189,2.039 0.276,0.774 0.416,1.599 0.416,2.475 l 0,9.726 c 0,0.777 -0.211,1.355 -0.631,1.729 -0.224,0.233 -0.458,0.382 -0.705,0.448 -0.245,0.07 -0.562,0.102 -0.948,0.102 l -0.416,0 0,0.793 6.874,0 0,-0.793 -0.321,0 c -0.446,0 -0.806,-0.043 -1.073,-0.127 -0.269,-0.084 -0.516,-0.252 -0.742,-0.502 -0.204,-0.234 -0.346,-0.525 -0.428,-0.873 -0.081,-0.351 -0.121,-0.627 -0.121,-0.834 l 0,-9.676 c 0,-1.418 -0.328,-2.725 -0.984,-3.924 -0.657,-1.196 -1.58,-2.148 -2.761,-2.849 -1.183,-0.703 -2.527,-1.06 -4.04,-1.069 -1.593,0 -2.991,0.287 -4.194,0.865 -1.204,0.577 -2.14,1.409 -2.806,2.493 C 0.331,-2.74 0,-1.467 0,0"
           style="fill:#e4262c;fill-opacity:1;fill-rule:nonzero;stroke:none"
           id="path1088"
           inkscape:connector-curvature="0" />
      </g>
      <g
         id="g1090"
         transform="translate(221.7744,2140.7666)">
        <path
           d="m 0,0 0,0.713 0.969,0.174 c 0.302,0.025 0.547,0.069 0.724,0.132 0.179,0.062 0.34,0.179 0.483,0.349 0.144,0.187 0.231,0.373 0.269,0.549 0.034,0.182 0.054,0.431 0.054,0.752 l 0,15.441 c 0,0.286 -0.082,0.551 -0.241,0.791 -0.128,0.19 -0.302,0.319 -0.526,0.391 -0.224,0.071 -0.519,0.125 -0.884,0.16 L 0,19.479 l 0,0.803 13.196,0 0,-4.678 -0.738,0 -0.229,1.125 c -0.142,0.546 -0.263,0.951 -0.359,1.208 -0.099,0.257 -0.288,0.509 -0.567,0.75 -0.481,0.439 -1.118,0.658 -1.905,0.658 l -4.095,0 0,-8.272 2.618,0 c 0.894,0 1.535,0.156 1.917,0.471 0.237,0.197 0.402,0.408 0.5,0.639 0.099,0.225 0.17,0.537 0.215,0.932 l 0.052,0.496 0.754,0 0,-6.147 -0.782,0 -0.024,0.553 C 10.471,8.65 10.245,9.155 9.869,9.532 9.428,9.933 8.745,10.135 7.812,10.135 l -2.509,0 0,-6.261 C 5.303,3.267 5.342,2.792 5.416,2.446 5.494,2.103 5.684,1.793 5.986,1.517 6.345,1.186 6.922,1.019 7.721,1.019 l 2.645,0 c 0.384,0 0.738,0.043 1.066,0.127 0.326,0.086 0.669,0.234 1.026,0.451 0.393,0.257 0.738,0.628 1.027,1.105 0.292,0.478 0.498,0.903 0.625,1.279 L 14.567,5.216 15.29,5.19 14.377,0 0,0 Z"
           style="fill:#e4262c;fill-opacity:1;fill-rule:nonzero;stroke:none"
           id="path1092"
           inkscape:connector-curvature="0" />
      </g>
      <g
         id="g1094"
         transform="translate(188.521,2262.5195)">
        <path
           d="m 0,0 c 0,0 -13.801,-18.551 -48.639,-18.551 -33.758,0 -48.25,18.397 -49.117,19.435 0.876,-24.213 22.445,-44.532 48.942,-44.532 26.839,0 48.952,19.888 49.291,44.541 C 0.351,0.461 0,0 0,0"
           style="fill:#e4262c;fill-opacity:1;fill-rule:nonzero;stroke:none"
           id="path1096"
           inkscape:connector-curvature="0" />
      </g>
      <g
         id="g1098"
         transform="translate(163.062,2303.5166)">
        <path
           d="m 0,0 c 6.298,1.381 24.764,-10.018 22.881,-17.231 2.785,-3.957 3.515,-7.727 3.515,-10.725 l 0,-10.291 c 0,0 -16.562,-19.147 -49.451,-19.147 -32.89,0 -48.955,19.095 -48.955,19.095 l 0,11.397 c 0,7.165 4.302,18.94 10.615,18.962 0.56,4.91 13.675,11.157 20.637,9.472 7.249,2.054 11.461,2.054 17.703,2.054 C -14.72,3.586 -6.182,2.723 0,0"
           style="fill:#e4262c;fill-opacity:1;fill-rule:nonzero;stroke:none"
           id="path1100"
           inkscape:connector-curvature="0" />
      </g>
      <g
         id="g1102"
         transform="translate(135.0889,2234.4473)">
        <path
           d="M 0,0 5.512,6.777 11.022,0 0,0 Z"
           style="fill:#ffffff;fill-opacity:1;fill-rule:nonzero;stroke:none"
           id="path1104"
           inkscape:connector-curvature="0" />
      </g>
      <g
         id="g1106"
         transform="translate(142.4282,2287.1992)">
        <path
           d="m 0,0 c 0,0 15.091,-7.187 18.255,-11.929 3.161,-4.741 0.896,11.999 -7.066,15.523 -6.666,3.135 18.824,0.771 21.007,0.718 1.524,0.402 -3.525,6.325 -12.315,6.323 -8.788,0 -12.206,-1.332 -12.206,-1.332 0,0 4.573,9.089 4.737,9.158 0.165,0.068 -5.852,0.849 -5.852,0.849 0,0 -5.043,-4.758 -6.271,-6.373 -1.037,-0.944 -2.717,-0.904 -5.462,0.141 -2.746,1.047 -9.561,5.236 -10.202,5.663 -0.641,0.425 -4.319,-0.564 -5.607,-0.92 -1.289,-0.356 7.617,-6.467 8.048,-7.761 0.432,-1.293 -5.173,0.719 -9.63,1.006 -4.454,0.288 -8.624,-1.867 -9.628,-2.73 -2.363,-1.027 8.759,-1.647 12.216,-1.868 3.458,-0.224 7.33,-1.152 7.618,-1.725 0.173,-0.348 -3.576,-1.706 -7.159,-4.199 -2.316,-1.609 -6.268,-5.901 -5.633,-6.294 C -24.516,-6.141 -4.888,1.725 0,0"
           style="fill:#48ac42;fill-opacity:1;fill-rule:nonzero;stroke:none"
           id="path1108"
           inkscape:connector-curvature="0" />
      </g>
      <g
         id="g1110"
         transform="translate(142.4282,2287.1992)">
        <path
           d="m 0,0 c 0,0 15.091,-7.187 18.255,-11.929 3.161,-4.741 0.896,11.999 -7.066,15.523 -6.666,3.135 18.824,0.771 21.007,0.718 1.524,0.402 -3.525,6.325 -12.315,6.323 -8.788,0 -12.206,-1.332 -12.206,-1.332 0,0 4.573,9.089 4.737,9.158 0.165,0.068 -5.852,0.849 -5.852,0.849 0,0 -5.043,-4.758 -6.271,-6.373 -1.037,-0.944 -2.717,-0.904 -5.462,0.141 -2.746,1.047 -9.561,5.236 -10.202,5.663 -0.641,0.425 -4.319,-0.564 -5.607,-0.92 -1.289,-0.356 7.617,-6.467 8.048,-7.761 0.432,-1.293 -5.173,0.719 -9.63,1.006 -4.454,0.288 -8.624,-1.867 -9.628,-2.73 -2.363,-1.027 8.759,-1.647 12.216,-1.868 3.458,-0.224 7.33,-1.152 7.618,-1.725 0.173,-0.348 -3.576,-1.706 -7.159,-4.199 -2.316,-1.609 -6.268,-5.901 -5.633,-6.294 C -24.516,-6.141 -4.888,1.725 0,0 Z"
           style="fill:none;stroke:#ffffff;stroke-width:1.5;stroke-linecap:butt;stroke-linejoin:miter;stroke-miterlimit:4;stroke-dasharray:none;stroke-opacity:1"
           id="path1112"
           inkscape:connector-curvature="0" />
      </g>
      <g
         id="g1114"
         transform="translate(144.4067,2297.4063)">
        <path
           d="m 0,0 c 0,-0.396 -1.987,-0.714 -4.437,-0.714 -2.452,0 -4.438,0.318 -4.438,0.714 0,0.397 1.986,0.717 4.438,0.717 C -1.987,0.717 0,0.397 0,0 Z"
           style="fill:none;stroke:#ffffff;stroke-width:1.39999998;stroke-linecap:round;stroke-linejoin:miter;stroke-miterlimit:4;stroke-dasharray:none;stroke-opacity:1"
           id="path1116"
           inkscape:connector-curvature="0" />
      </g>
      <g
         id="g1118"
         transform="translate(135.7783,2292.8066)">
        <path
           d="M 0,0 -0.249,4.6"
           style="fill:#64b240;fill-opacity:1;fill-rule:nonzero;stroke:#ffffff;stroke-width:1.39999998;stroke-linecap:round;stroke-linejoin:miter;stroke-miterlimit:4;stroke-dasharray:none;stroke-opacity:1"
           id="path1120"
           inkscape:connector-curvature="0" />
      </g>
      <g
         id="g1122"
         transform="translate(144.1167,2295.5996)">
        <path
           d="M 0,0 0.29,1.807"
           style="fill:#64b240;fill-opacity:1;fill-rule:nonzero;stroke:#ffffff;stroke-width:1.39999998;stroke-linecap:round;stroke-linejoin:miter;stroke-miterlimit:4;stroke-dasharray:none;stroke-opacity:1"
           id="path1124"
           inkscape:connector-curvature="0" />
      </g>
      <g
         id="g1126"
         transform="translate(135.3027,2256.377)">
        <path
           d="m 0,0 c -0.05,1.59 0.855,2.813 2.525,2.813 1.273,0 2.388,-0.815 2.388,-2.177 0,-1.044 -0.558,-1.62 -1.244,-2.107 C 2.983,-1.957 2.17,-2.354 1.659,-3.07 l 3.292,0 0,-1.215 -5.11,0 c 0.011,1.611 0.994,2.297 2.197,3.113 0.617,0.416 1.45,0.845 1.461,1.699 0,0.656 -0.435,1.075 -1.042,1.075 C 1.623,1.602 1.354,0.736 1.354,0 L 0,0 Z"
           style="fill:#ffffff;fill-opacity:1;fill-rule:nonzero;stroke:none"
           id="path1128"
           inkscape:connector-curvature="0" />
      </g>
      <g
         id="g1130"
         transform="translate(145.4346,2257.8896)">
        <path
           d="m 0,0 -2.875,0 -0.278,-1.581 0.02,-0.02 c 0.379,0.386 0.814,0.535 1.362,0.535 1.371,0 2.15,-1.063 2.15,-2.365 0,-1.432 -1.183,-2.535 -2.587,-2.505 -1.351,0 -2.567,0.746 -2.584,2.207 l 1.411,0 c 0.07,-0.616 0.526,-1.044 1.144,-1.044 0.735,0 1.201,0.647 1.201,1.342 0,0.727 -0.445,1.302 -1.201,1.302 -0.509,0 -0.786,-0.179 -1.064,-0.556 l -1.274,0 0.686,3.846 L 0,1.161 0,0 Z"
           style="fill:#ffffff;fill-opacity:1;fill-rule:nonzero;stroke:none"
           id="path1132"
           inkscape:connector-curvature="0" />
      </g>
      <g
         id="g1134"
         transform="translate(116.3281,2280.5791)">
        <path
           d="M 0,0 C -5.817,-4.324 -7.789,-8.257 -7.661,-11.093"
           style="fill:none;stroke:#ffffff;stroke-width:1.20000005;stroke-linecap:round;stroke-linejoin:miter;stroke-miterlimit:4;stroke-dasharray:none;stroke-opacity:1"
           id="path1136"
           inkscape:connector-curvature="0" />
      </g>
      <g
         id="g1138"
         transform="translate(178.0352,2290.4355)">
        <path
           d="M 0,0 C 3.443,-0.716 3.821,-0.647 8.16,-3.877"
           style="fill:none;stroke:#ffffff;stroke-width:1.20000005;stroke-linecap:round;stroke-linejoin:miter;stroke-miterlimit:4;stroke-dasharray:none;stroke-opacity:1"
           id="path1140"
           inkscape:connector-curvature="0" />
      </g>
      <g
         id="g1142"
         transform="translate(108.7041,2295.1602)">
        <path
           d="M 0,0 C -5.406,1.299 -7.762,0.604 -7.762,0.604"
           style="fill:none;stroke:#ffffff;stroke-width:1.20000005;stroke-linecap:round;stroke-linejoin:miter;stroke-miterlimit:4;stroke-dasharray:none;stroke-opacity:1"
           id="path1144"
           inkscape:connector-curvature="0" />
      </g>
      <g
         id="g1146"
         transform="translate(164.4404,2263.8984)">
        <path
           d="M 0,0 C -0.096,4.687 -0.728,7.429 -2.251,9.479"
           style="fill:none;stroke:#ffffff;stroke-width:1.20000005;stroke-linecap:round;stroke-linejoin:miter;stroke-miterlimit:4;stroke-dasharray:none;stroke-opacity:1"
           id="path1148"
           inkscape:connector-curvature="0" />
      </g>
      <g
         id="g1150"
         transform="translate(162.7759,2303.5166)">
        <path
           d="M 0,0 C -3.049,-1.321 -5.196,-2.623 -5.907,-3.742"
           style="fill:none;stroke:#ffffff;stroke-width:1.20000005;stroke-linecap:round;stroke-linejoin:miter;stroke-miterlimit:4;stroke-dasharray:none;stroke-opacity:1"
           id="path1152"
           inkscape:connector-curvature="0" />
      </g>
      <g
         id="g1154"
         transform="translate(140.6011,2246.1963)">
        <path
           d="M 0,0 0,3.493"
           style="fill:none;stroke:#ffffff;stroke-width:2;stroke-linecap:round;stroke-linejoin:miter;stroke-miterlimit:4;stroke-dasharray:none;stroke-opacity:1"
           id="path1156"
           inkscape:connector-curvature="0" />
      </g>
      <g
         id="g1158"
         transform="translate(132.644,2246.1621)">
        <path
           d="M 0,0 0,3.561"
           style="fill:none;stroke:#ffffff;stroke-width:1;stroke-linecap:round;stroke-linejoin:miter;stroke-miterlimit:4;stroke-dasharray:none;stroke-opacity:1"
           id="path1160"
           inkscape:connector-curvature="0" />
      </g>
      <g
         id="g1162"
         transform="translate(126.0439,2246.5537)">
        <path
           d="M 0,0 0,4.034"
           style="fill:none;stroke:#ffffff;stroke-width:1;stroke-linecap:round;stroke-linejoin:miter;stroke-miterlimit:4;stroke-dasharray:none;stroke-opacity:1"
           id="path1164"
           inkscape:connector-curvature="0" />
      </g>
      <g
         id="g1166"
         transform="translate(120.3213,2247.8975)">
        <path
           d="M 0,0 0,3.646"
           style="fill:none;stroke:#ffffff;stroke-width:1;stroke-linecap:round;stroke-linejoin:miter;stroke-miterlimit:4;stroke-dasharray:none;stroke-opacity:1"
           id="path1168"
           inkscape:connector-curvature="0" />
      </g>
      <g
         id="g1170"
         transform="translate(115.0078,2249.7695)">
        <path
           d="M 0,0 0,3.549"
           style="fill:none;stroke:#ffffff;stroke-width:1;stroke-linecap:round;stroke-linejoin:miter;stroke-miterlimit:4;stroke-dasharray:none;stroke-opacity:1"
           id="path1172"
           inkscape:connector-curvature="0" />
      </g>
      <g
         id="g1174"
         transform="translate(109.9844,2251.9004)">
        <path
           d="M 0,0 0,4.805"
           style="fill:none;stroke:#ffffff;stroke-width:2;stroke-linecap:round;stroke-linejoin:miter;stroke-miterlimit:4;stroke-dasharray:none;stroke-opacity:1"
           id="path1176"
           inkscape:connector-curvature="0" />
      </g>
      <g
         id="g1178"
         transform="translate(92.9492,2262.2959)">
        <path
           d="M 0,0 0,3.495"
           style="fill:none;stroke:#ffffff;stroke-width:2;stroke-linecap:round;stroke-linejoin:miter;stroke-miterlimit:4;stroke-dasharray:none;stroke-opacity:1"
           id="path1180"
           inkscape:connector-curvature="0" />
      </g>
      <g
         id="g1182"
         transform="translate(104.8901,2254.3027)">
        <path
           d="M 0,0 0,3.937"
           style="fill:none;stroke:#ffffff;stroke-width:1;stroke-linecap:round;stroke-linejoin:miter;stroke-miterlimit:4;stroke-dasharray:none;stroke-opacity:1"
           id="path1184"
           inkscape:connector-curvature="0" />
      </g>
      <g
         id="g1186"
         transform="translate(100.6616,2257.0879)">
        <path
           d="M 0,0 0,3.17"
           style="fill:none;stroke:#ffffff;stroke-width:1;stroke-linecap:round;stroke-linejoin:miter;stroke-miterlimit:4;stroke-dasharray:none;stroke-opacity:1"
           id="path1188"
           inkscape:connector-curvature="0" />
      </g>
      <g
         id="g1190"
         transform="translate(97.3882,2259.1885)">
        <path
           d="M 0,0 0,2.747"
           style="fill:none;stroke:#ffffff;stroke-width:1;stroke-linecap:round;stroke-linejoin:miter;stroke-miterlimit:4;stroke-dasharray:none;stroke-opacity:1"
           id="path1192"
           inkscape:connector-curvature="0" />
      </g>
      <g
         id="g1194"
         transform="translate(94.8179,2260.6553)">
        <path
           d="M 0,0 0,2.748"
           style="fill:none;stroke:#ffffff;stroke-width:1;stroke-linecap:round;stroke-linejoin:miter;stroke-miterlimit:4;stroke-dasharray:none;stroke-opacity:1"
           id="path1196"
           inkscape:connector-curvature="0" />
      </g>
      <g
         id="g1198"
         transform="translate(45.4341,2171.5449)">
        <path
           d="m 0,0 c 0,-0.581 85.813,-1.052 85.813,-1.052 0.58,0 1.051,0.471 1.051,1.052 0,0.579 -0.471,1.049 -1.051,1.049 C 85.813,1.049 0,0.579 0,0"
           style="fill:#e4262c;fill-opacity:1;fill-rule:nonzero;stroke:none"
           id="path1200"
           inkscape:connector-curvature="0" />
      </g>
      <g
         id="g1202"
         transform="translate(223.9414,2171.5449)">
        <path
           d="m 0,0 c 0,-0.581 -85.815,-1.052 -85.815,-1.052 -0.578,0 -1.049,0.471 -1.049,1.052 0,0.579 0.471,1.049 1.049,1.049 C -85.815,1.049 0,0.579 0,0"
           style="fill:#e4262c;fill-opacity:1;fill-rule:nonzero;stroke:none"
           id="path1204"
           inkscape:connector-curvature="0" />
      </g>
      <g
         id="g1206"
         transform="translate(196.7744,2300.4326)">
        <path
           d="m 0,0 c -2.167,0 -3.93,-1.763 -3.93,-3.931 0,-2.165 1.763,-3.927 3.93,-3.927 2.168,0 3.928,1.762 3.928,3.927 C 3.928,-1.763 2.168,0 0,0 m 0,-8.86 c -2.72,0 -4.93,2.213 -4.93,4.929 0,2.719 2.21,4.933 4.93,4.933 2.72,0 4.931,-2.214 4.931,-4.933 C 4.931,-6.647 2.72,-8.86 0,-8.86"
           style="fill:#e4262c;fill-opacity:1;fill-rule:nonzero;stroke:none"
           id="path1208"
           inkscape:connector-curvature="0" />
      </g>
      <g
         id="g1210"
         transform="translate(195.9409,2295.9844)">
        <path
           d="m 0,0 0,-1.951 -1.331,0 0,5.16 2.034,0 c 0.68,0 1.18,-0.113 1.491,-0.343 C 2.515,2.641 2.673,2.28 2.673,1.785 2.673,1.444 2.591,1.165 2.424,0.944 2.26,0.727 2.012,0.566 1.682,0.462 1.864,0.419 2.025,0.326 2.167,0.18 2.312,0.033 2.458,-0.188 2.607,-0.486 l 0.724,-1.465 -1.419,0 -0.628,1.282 C 1.155,-0.412 1.027,-0.234 0.896,-0.139 0.767,-0.045 0.592,0 0.377,0 L 0,0 m 0.56,0.921 c 0.278,0 0.479,0.052 0.597,0.156 C 1.281,1.18 1.34,1.351 1.34,1.588 1.34,1.824 1.281,1.992 1.157,2.094 1.039,2.194 0.838,2.246 0.56,2.246 l -0.56,0 0,-1.325 0.56,0"
           style="fill:#e4262c;fill-opacity:1;fill-rule:nonzero;stroke:none"
           id="path1212"
           inkscape:connector-curvature="0" />
      </g>
    </g>
  </g>
</svg>
